<mxfile host="app.diagrams.net" agent="Mozilla/5.0 (Windows NT 10.0; Win64; x64) AppleWebKit/537.36 (KHTML, like Gecko) Chrome/131.0.0.0 Safari/537.36 Edg/131.0.0.0" version="26.0.6">
  <diagram name="PÃ¡gina-1" id="o0RJ3alHOyX1quW1q8Vg">
    <mxGraphModel dx="1226" dy="665" grid="1" gridSize="10" guides="1" tooltips="1" connect="1" arrows="1" fold="1" page="1" pageScale="1" pageWidth="827" pageHeight="1169" math="0" shadow="0">
      <root>
        <mxCell id="0" />
        <mxCell id="1" parent="0" />
        <mxCell id="1Bs9g0EZFuZqRG2DbEx_-2" value="CASOS" style="rounded=0;whiteSpace=wrap;html=1;fillColor=#dae8fc;strokeColor=#6c8ebf;" vertex="1" parent="1">
          <mxGeometry x="150" y="280" width="140" height="50" as="geometry" />
        </mxCell>
        <mxCell id="1Bs9g0EZFuZqRG2DbEx_-3" value="idExpediente" style="ellipse;whiteSpace=wrap;html=1;fontStyle=5;fillColor=#dae8fc;strokeColor=#6c8ebf;" vertex="1" parent="1">
          <mxGeometry x="30" y="230" width="90" height="50" as="geometry" />
        </mxCell>
        <mxCell id="1Bs9g0EZFuZqRG2DbEx_-4" value="fechaInicio" style="ellipse;whiteSpace=wrap;html=1;fontStyle=0;" vertex="1" parent="1">
          <mxGeometry x="70" y="360" width="90" height="50" as="geometry" />
        </mxCell>
        <mxCell id="1Bs9g0EZFuZqRG2DbEx_-6" value="fechaFinal" style="ellipse;whiteSpace=wrap;html=1;fontStyle=0;" vertex="1" parent="1">
          <mxGeometry x="270" y="360" width="90" height="50" as="geometry" />
        </mxCell>
        <mxCell id="1Bs9g0EZFuZqRG2DbEx_-7" value="" style="endArrow=none;html=1;rounded=0;exitX=0.596;exitY=1.056;exitDx=0;exitDy=0;exitPerimeter=0;entryX=0;entryY=0.5;entryDx=0;entryDy=0;" edge="1" parent="1" source="1Bs9g0EZFuZqRG2DbEx_-3" target="1Bs9g0EZFuZqRG2DbEx_-2">
          <mxGeometry width="50" height="50" relative="1" as="geometry">
            <mxPoint x="630" y="320" as="sourcePoint" />
            <mxPoint x="140" y="300" as="targetPoint" />
          </mxGeometry>
        </mxCell>
        <mxCell id="1Bs9g0EZFuZqRG2DbEx_-8" value="" style="endArrow=none;html=1;rounded=0;exitX=0.097;exitY=1.048;exitDx=0;exitDy=0;entryX=0.5;entryY=0;entryDx=0;entryDy=0;exitPerimeter=0;" edge="1" parent="1" source="1Bs9g0EZFuZqRG2DbEx_-2" target="1Bs9g0EZFuZqRG2DbEx_-4">
          <mxGeometry width="50" height="50" relative="1" as="geometry">
            <mxPoint x="630" y="320" as="sourcePoint" />
            <mxPoint x="680" y="270" as="targetPoint" />
          </mxGeometry>
        </mxCell>
        <mxCell id="1Bs9g0EZFuZqRG2DbEx_-9" value="" style="endArrow=none;html=1;rounded=0;exitX=0.68;exitY=1.048;exitDx=0;exitDy=0;exitPerimeter=0;" edge="1" parent="1" source="1Bs9g0EZFuZqRG2DbEx_-2" target="1Bs9g0EZFuZqRG2DbEx_-6">
          <mxGeometry width="50" height="50" relative="1" as="geometry">
            <mxPoint x="630" y="320" as="sourcePoint" />
            <mxPoint x="680" y="270" as="targetPoint" />
          </mxGeometry>
        </mxCell>
        <mxCell id="1Bs9g0EZFuZqRG2DbEx_-10" value="estado" style="ellipse;whiteSpace=wrap;html=1;fontStyle=0;" vertex="1" parent="1">
          <mxGeometry x="210" y="210" width="100" height="40" as="geometry" />
        </mxCell>
        <mxCell id="1Bs9g0EZFuZqRG2DbEx_-11" value="" style="endArrow=none;html=1;rounded=0;" edge="1" parent="1" source="1Bs9g0EZFuZqRG2DbEx_-2" target="1Bs9g0EZFuZqRG2DbEx_-10">
          <mxGeometry width="50" height="50" relative="1" as="geometry">
            <mxPoint x="630" y="320" as="sourcePoint" />
            <mxPoint x="680" y="270" as="targetPoint" />
          </mxGeometry>
        </mxCell>
        <mxCell id="1Bs9g0EZFuZqRG2DbEx_-12" value="apelacion" style="ellipse;whiteSpace=wrap;html=1;fontSize=10;" vertex="1" parent="1">
          <mxGeometry x="210" y="120" width="74" height="40" as="geometry" />
        </mxCell>
        <mxCell id="1Bs9g0EZFuZqRG2DbEx_-13" value="enEspera" style="ellipse;whiteSpace=wrap;html=1;fontSize=10;" vertex="1" parent="1">
          <mxGeometry x="290" y="120" width="60" height="40" as="geometry" />
        </mxCell>
        <mxCell id="1Bs9g0EZFuZqRG2DbEx_-14" value="enRevision" style="ellipse;whiteSpace=wrap;html=1;" vertex="1" parent="1">
          <mxGeometry x="340" y="150" width="80" height="40" as="geometry" />
        </mxCell>
        <mxCell id="1Bs9g0EZFuZqRG2DbEx_-15" value="enInvestigacion" style="ellipse;whiteSpace=wrap;html=1;fontSize=9;" vertex="1" parent="1">
          <mxGeometry x="354" y="190" width="66" height="40" as="geometry" />
        </mxCell>
        <mxCell id="1Bs9g0EZFuZqRG2DbEx_-16" value="suspendido" style="ellipse;whiteSpace=wrap;html=1;" vertex="1" parent="1">
          <mxGeometry x="160" y="160" width="70" height="40" as="geometry" />
        </mxCell>
        <mxCell id="1Bs9g0EZFuZqRG2DbEx_-17" value="archivado" style="ellipse;whiteSpace=wrap;html=1;fontSize=9;" vertex="1" parent="1">
          <mxGeometry x="350" y="230" width="70" height="40" as="geometry" />
        </mxCell>
        <mxCell id="1Bs9g0EZFuZqRG2DbEx_-18" value="" style="endArrow=none;html=1;rounded=0;exitX=0.5;exitY=1;exitDx=0;exitDy=0;" edge="1" parent="1" source="1Bs9g0EZFuZqRG2DbEx_-16">
          <mxGeometry width="50" height="50" relative="1" as="geometry">
            <mxPoint x="530" y="320" as="sourcePoint" />
            <mxPoint x="240" y="210" as="targetPoint" />
          </mxGeometry>
        </mxCell>
        <mxCell id="1Bs9g0EZFuZqRG2DbEx_-19" value="" style="endArrow=none;html=1;rounded=0;exitX=0.702;exitY=0.112;exitDx=0;exitDy=0;exitPerimeter=0;entryX=0;entryY=1;entryDx=0;entryDy=0;" edge="1" parent="1" source="1Bs9g0EZFuZqRG2DbEx_-10" target="1Bs9g0EZFuZqRG2DbEx_-14">
          <mxGeometry width="50" height="50" relative="1" as="geometry">
            <mxPoint x="530" y="320" as="sourcePoint" />
            <mxPoint x="580" y="270" as="targetPoint" />
          </mxGeometry>
        </mxCell>
        <mxCell id="1Bs9g0EZFuZqRG2DbEx_-20" value="" style="endArrow=none;html=1;rounded=0;exitX=0.927;exitY=0.768;exitDx=0;exitDy=0;exitPerimeter=0;" edge="1" parent="1" source="1Bs9g0EZFuZqRG2DbEx_-10" target="1Bs9g0EZFuZqRG2DbEx_-17">
          <mxGeometry width="50" height="50" relative="1" as="geometry">
            <mxPoint x="530" y="320" as="sourcePoint" />
            <mxPoint x="580" y="270" as="targetPoint" />
          </mxGeometry>
        </mxCell>
        <mxCell id="1Bs9g0EZFuZqRG2DbEx_-21" value="" style="endArrow=none;html=1;rounded=0;exitX=0.5;exitY=0;exitDx=0;exitDy=0;entryX=0.5;entryY=1;entryDx=0;entryDy=0;" edge="1" parent="1" source="1Bs9g0EZFuZqRG2DbEx_-10" target="1Bs9g0EZFuZqRG2DbEx_-12">
          <mxGeometry width="50" height="50" relative="1" as="geometry">
            <mxPoint x="530" y="320" as="sourcePoint" />
            <mxPoint x="370" y="130" as="targetPoint" />
          </mxGeometry>
        </mxCell>
        <mxCell id="1Bs9g0EZFuZqRG2DbEx_-22" value="" style="endArrow=none;html=1;rounded=0;entryX=0.009;entryY=0.71;entryDx=0;entryDy=0;entryPerimeter=0;" edge="1" parent="1" source="1Bs9g0EZFuZqRG2DbEx_-10" target="1Bs9g0EZFuZqRG2DbEx_-13">
          <mxGeometry width="50" height="50" relative="1" as="geometry">
            <mxPoint x="530" y="320" as="sourcePoint" />
            <mxPoint x="580" y="270" as="targetPoint" />
          </mxGeometry>
        </mxCell>
        <mxCell id="1Bs9g0EZFuZqRG2DbEx_-23" value="" style="endArrow=none;html=1;rounded=0;exitX=0.956;exitY=0.368;exitDx=0;exitDy=0;exitPerimeter=0;" edge="1" parent="1" source="1Bs9g0EZFuZqRG2DbEx_-10">
          <mxGeometry width="50" height="50" relative="1" as="geometry">
            <mxPoint x="530" y="320" as="sourcePoint" />
            <mxPoint x="360" y="210" as="targetPoint" />
          </mxGeometry>
        </mxCell>
        <mxCell id="1Bs9g0EZFuZqRG2DbEx_-24" value="CLIENTES" style="rounded=0;whiteSpace=wrap;html=1;fillColor=#dae8fc;strokeColor=#6c8ebf;" vertex="1" parent="1">
          <mxGeometry x="580" y="275" width="120" height="60" as="geometry" />
        </mxCell>
        <mxCell id="1Bs9g0EZFuZqRG2DbEx_-28" value="idCliente" style="ellipse;whiteSpace=wrap;html=1;fontStyle=5;fillColor=#dae8fc;strokeColor=#6c8ebf;" vertex="1" parent="1">
          <mxGeometry x="500" y="210" width="80" height="40" as="geometry" />
        </mxCell>
        <mxCell id="1Bs9g0EZFuZqRG2DbEx_-29" value="nombreCliente" style="ellipse;whiteSpace=wrap;html=1;" vertex="1" parent="1">
          <mxGeometry x="600" y="180" width="80" height="40" as="geometry" />
        </mxCell>
        <mxCell id="1Bs9g0EZFuZqRG2DbEx_-30" value="" style="endArrow=none;html=1;rounded=0;exitX=0.365;exitY=1.07;exitDx=0;exitDy=0;exitPerimeter=0;entryX=0;entryY=0;entryDx=0;entryDy=0;" edge="1" parent="1" source="1Bs9g0EZFuZqRG2DbEx_-28" target="1Bs9g0EZFuZqRG2DbEx_-24">
          <mxGeometry width="50" height="50" relative="1" as="geometry">
            <mxPoint x="720" y="320" as="sourcePoint" />
            <mxPoint x="770" y="270" as="targetPoint" />
          </mxGeometry>
        </mxCell>
        <mxCell id="1Bs9g0EZFuZqRG2DbEx_-31" value="direccion" style="ellipse;whiteSpace=wrap;html=1;" vertex="1" parent="1">
          <mxGeometry x="690" y="220" width="80" height="40" as="geometry" />
        </mxCell>
        <mxCell id="1Bs9g0EZFuZqRG2DbEx_-32" value="" style="endArrow=none;html=1;rounded=0;exitX=0.5;exitY=0;exitDx=0;exitDy=0;entryX=0.5;entryY=1;entryDx=0;entryDy=0;" edge="1" parent="1" source="1Bs9g0EZFuZqRG2DbEx_-24" target="1Bs9g0EZFuZqRG2DbEx_-29">
          <mxGeometry width="50" height="50" relative="1" as="geometry">
            <mxPoint x="720" y="320" as="sourcePoint" />
            <mxPoint x="770" y="270" as="targetPoint" />
          </mxGeometry>
        </mxCell>
        <mxCell id="1Bs9g0EZFuZqRG2DbEx_-33" value="" style="endArrow=none;html=1;rounded=0;exitX=1;exitY=0.5;exitDx=0;exitDy=0;entryX=0.335;entryY=1.02;entryDx=0;entryDy=0;entryPerimeter=0;" edge="1" parent="1" source="1Bs9g0EZFuZqRG2DbEx_-24" target="1Bs9g0EZFuZqRG2DbEx_-31">
          <mxGeometry width="50" height="50" relative="1" as="geometry">
            <mxPoint x="720" y="320" as="sourcePoint" />
            <mxPoint x="770" y="270" as="targetPoint" />
          </mxGeometry>
        </mxCell>
        <mxCell id="1Bs9g0EZFuZqRG2DbEx_-46" value="TIENEN" style="rhombus;whiteSpace=wrap;html=1;" vertex="1" parent="1">
          <mxGeometry x="380" y="265" width="80" height="80" as="geometry" />
        </mxCell>
        <mxCell id="1Bs9g0EZFuZqRG2DbEx_-47" value="" style="endArrow=none;html=1;rounded=0;exitX=1;exitY=0.5;exitDx=0;exitDy=0;entryX=0;entryY=0.5;entryDx=0;entryDy=0;" edge="1" parent="1" source="1Bs9g0EZFuZqRG2DbEx_-2" target="1Bs9g0EZFuZqRG2DbEx_-46">
          <mxGeometry width="50" height="50" relative="1" as="geometry">
            <mxPoint x="620" y="310" as="sourcePoint" />
            <mxPoint x="670" y="260" as="targetPoint" />
          </mxGeometry>
        </mxCell>
        <mxCell id="1Bs9g0EZFuZqRG2DbEx_-48" value="" style="endArrow=none;html=1;rounded=0;exitX=1;exitY=0.5;exitDx=0;exitDy=0;entryX=0;entryY=0.5;entryDx=0;entryDy=0;" edge="1" parent="1" source="1Bs9g0EZFuZqRG2DbEx_-46" target="1Bs9g0EZFuZqRG2DbEx_-24">
          <mxGeometry width="50" height="50" relative="1" as="geometry">
            <mxPoint x="620" y="310" as="sourcePoint" />
            <mxPoint x="580" y="320" as="targetPoint" />
          </mxGeometry>
        </mxCell>
        <mxCell id="1Bs9g0EZFuZqRG2DbEx_-52" value="" style="group" vertex="1" connectable="0" parent="1">
          <mxGeometry x="50" y="540" width="350" height="180" as="geometry" />
        </mxCell>
        <mxCell id="1Bs9g0EZFuZqRG2DbEx_-50" value="" style="group" vertex="1" connectable="0" parent="1Bs9g0EZFuZqRG2DbEx_-52">
          <mxGeometry y="30" width="350" height="150" as="geometry" />
        </mxCell>
        <mxCell id="1Bs9g0EZFuZqRG2DbEx_-36" value="numeroColegio" style="ellipse;whiteSpace=wrap;html=1;fillColor=#dae8fc;strokeColor=#6c8ebf;fontStyle=5" vertex="1" parent="1Bs9g0EZFuZqRG2DbEx_-50">
          <mxGeometry y="25" width="90" height="45" as="geometry" />
        </mxCell>
        <mxCell id="1Bs9g0EZFuZqRG2DbEx_-49" value="" style="group" vertex="1" connectable="0" parent="1Bs9g0EZFuZqRG2DbEx_-50">
          <mxGeometry x="90" width="260" height="150" as="geometry" />
        </mxCell>
        <mxCell id="1Bs9g0EZFuZqRG2DbEx_-35" value="PROCURADORES" style="rounded=0;whiteSpace=wrap;html=1;fillColor=#dae8fc;strokeColor=#6c8ebf;" vertex="1" parent="1Bs9g0EZFuZqRG2DbEx_-49">
          <mxGeometry y="80" width="120" height="60" as="geometry" />
        </mxCell>
        <mxCell id="1Bs9g0EZFuZqRG2DbEx_-40" value="tlfProcurador" style="ellipse;whiteSpace=wrap;html=1;" vertex="1" parent="1Bs9g0EZFuZqRG2DbEx_-49">
          <mxGeometry x="120" y="20" width="100" height="40" as="geometry" />
        </mxCell>
        <mxCell id="1Bs9g0EZFuZqRG2DbEx_-41" value="" style="endArrow=none;html=1;rounded=0;entryX=0;entryY=1;entryDx=0;entryDy=0;" edge="1" parent="1Bs9g0EZFuZqRG2DbEx_-49" source="1Bs9g0EZFuZqRG2DbEx_-35" target="1Bs9g0EZFuZqRG2DbEx_-40">
          <mxGeometry width="50" height="50" relative="1" as="geometry">
            <mxPoint x="-80" y="120" as="sourcePoint" />
            <mxPoint x="-30" y="70" as="targetPoint" />
          </mxGeometry>
        </mxCell>
        <mxCell id="1Bs9g0EZFuZqRG2DbEx_-42" value="emailProcurador" style="ellipse;whiteSpace=wrap;html=1;" vertex="1" parent="1Bs9g0EZFuZqRG2DbEx_-49">
          <mxGeometry x="150" y="60" width="100" height="40" as="geometry" />
        </mxCell>
        <mxCell id="1Bs9g0EZFuZqRG2DbEx_-43" value="" style="endArrow=none;html=1;rounded=0;entryX=0;entryY=0.75;entryDx=0;entryDy=0;entryPerimeter=0;exitX=1;exitY=0.75;exitDx=0;exitDy=0;" edge="1" parent="1Bs9g0EZFuZqRG2DbEx_-49" source="1Bs9g0EZFuZqRG2DbEx_-35" target="1Bs9g0EZFuZqRG2DbEx_-42">
          <mxGeometry width="50" height="50" relative="1" as="geometry">
            <mxPoint x="-80" y="120" as="sourcePoint" />
            <mxPoint x="-30" y="70" as="targetPoint" />
          </mxGeometry>
        </mxCell>
        <mxCell id="1Bs9g0EZFuZqRG2DbEx_-44" value="direccionProcurador" style="ellipse;whiteSpace=wrap;html=1;" vertex="1" parent="1Bs9g0EZFuZqRG2DbEx_-49">
          <mxGeometry x="160" y="110" width="100" height="40" as="geometry" />
        </mxCell>
        <mxCell id="1Bs9g0EZFuZqRG2DbEx_-45" value="" style="endArrow=none;html=1;rounded=0;entryX=0;entryY=0.5;entryDx=0;entryDy=0;exitX=1;exitY=1;exitDx=0;exitDy=0;" edge="1" parent="1Bs9g0EZFuZqRG2DbEx_-49" source="1Bs9g0EZFuZqRG2DbEx_-35" target="1Bs9g0EZFuZqRG2DbEx_-44">
          <mxGeometry width="50" height="50" relative="1" as="geometry">
            <mxPoint x="-80" y="120" as="sourcePoint" />
            <mxPoint x="-30" y="70" as="targetPoint" />
          </mxGeometry>
        </mxCell>
        <mxCell id="1Bs9g0EZFuZqRG2DbEx_-37" value="" style="endArrow=none;html=1;rounded=0;entryX=0.418;entryY=0.984;entryDx=0;entryDy=0;entryPerimeter=0;exitX=0;exitY=0.25;exitDx=0;exitDy=0;" edge="1" parent="1Bs9g0EZFuZqRG2DbEx_-50" source="1Bs9g0EZFuZqRG2DbEx_-35" target="1Bs9g0EZFuZqRG2DbEx_-36">
          <mxGeometry width="50" height="50" relative="1" as="geometry">
            <mxPoint x="10" y="120" as="sourcePoint" />
            <mxPoint x="60" y="70" as="targetPoint" />
          </mxGeometry>
        </mxCell>
        <mxCell id="1Bs9g0EZFuZqRG2DbEx_-38" value="nombreProcurador" style="ellipse;whiteSpace=wrap;html=1;" vertex="1" parent="1Bs9g0EZFuZqRG2DbEx_-52">
          <mxGeometry width="100" height="40" as="geometry" />
        </mxCell>
        <mxCell id="1Bs9g0EZFuZqRG2DbEx_-39" value="" style="endArrow=none;html=1;rounded=0;entryX=0.3;entryY=0.875;entryDx=0;entryDy=0;entryPerimeter=0;" edge="1" parent="1Bs9g0EZFuZqRG2DbEx_-52" source="1Bs9g0EZFuZqRG2DbEx_-35">
          <mxGeometry width="50" height="50" relative="1" as="geometry">
            <mxPoint x="10" y="150" as="sourcePoint" />
            <mxPoint x="54" y="35" as="targetPoint" />
          </mxGeometry>
        </mxCell>
        <mxCell id="1Bs9g0EZFuZqRG2DbEx_-53" value="idCliente" style="ellipse;whiteSpace=wrap;html=1;fontStyle=0;dashed=1;" vertex="1" parent="1">
          <mxGeometry x="120" y="220" width="80" height="40" as="geometry" />
        </mxCell>
        <mxCell id="1Bs9g0EZFuZqRG2DbEx_-54" value="" style="endArrow=none;html=1;rounded=0;exitX=0.75;exitY=1;exitDx=0;exitDy=0;exitPerimeter=0;entryX=0.37;entryY=0.069;entryDx=0;entryDy=0;entryPerimeter=0;" edge="1" parent="1" source="1Bs9g0EZFuZqRG2DbEx_-53" target="1Bs9g0EZFuZqRG2DbEx_-2">
          <mxGeometry width="50" height="50" relative="1" as="geometry">
            <mxPoint x="620" y="430" as="sourcePoint" />
            <mxPoint x="670" y="380" as="targetPoint" />
          </mxGeometry>
        </mxCell>
        <mxCell id="1Bs9g0EZFuZqRG2DbEx_-55" value="TIENEN" style="rhombus;whiteSpace=wrap;html=1;" vertex="1" parent="1">
          <mxGeometry x="160" y="420" width="80" height="80" as="geometry" />
        </mxCell>
        <mxCell id="1Bs9g0EZFuZqRG2DbEx_-56" value="" style="endArrow=none;html=1;rounded=0;exitX=0.39;exitY=1.105;exitDx=0;exitDy=0;exitPerimeter=0;entryX=0.5;entryY=0;entryDx=0;entryDy=0;" edge="1" parent="1" source="1Bs9g0EZFuZqRG2DbEx_-2" target="1Bs9g0EZFuZqRG2DbEx_-55">
          <mxGeometry width="50" height="50" relative="1" as="geometry">
            <mxPoint x="620" y="430" as="sourcePoint" />
            <mxPoint x="200" y="410" as="targetPoint" />
          </mxGeometry>
        </mxCell>
        <mxCell id="1Bs9g0EZFuZqRG2DbEx_-57" value="" style="endArrow=none;html=1;rounded=0;exitX=0.5;exitY=1;exitDx=0;exitDy=0;entryX=0.5;entryY=0;entryDx=0;entryDy=0;" edge="1" parent="1" source="1Bs9g0EZFuZqRG2DbEx_-55" target="1Bs9g0EZFuZqRG2DbEx_-35">
          <mxGeometry width="50" height="50" relative="1" as="geometry">
            <mxPoint x="620" y="430" as="sourcePoint" />
            <mxPoint x="670" y="380" as="targetPoint" />
          </mxGeometry>
        </mxCell>
        <mxCell id="1Bs9g0EZFuZqRG2DbEx_-60" value="idExpediente" style="ellipse;whiteSpace=wrap;html=1;fontStyle=0;fillColor=#f5f5f5;strokeColor=#666666;fontColor=#333333;dashed=1;" vertex="1" parent="1">
          <mxGeometry x="250" y="420" width="90" height="50" as="geometry" />
        </mxCell>
        <mxCell id="1Bs9g0EZFuZqRG2DbEx_-61" value="numeroColegio" style="ellipse;whiteSpace=wrap;html=1;fillColor=#f5f5f5;strokeColor=#666666;fontStyle=0;fontColor=#333333;dashed=1;" vertex="1" parent="1">
          <mxGeometry x="230" y="480" width="90" height="45" as="geometry" />
        </mxCell>
        <mxCell id="1Bs9g0EZFuZqRG2DbEx_-62" value="" style="endArrow=none;html=1;rounded=0;exitX=1;exitY=0;exitDx=0;exitDy=0;" edge="1" parent="1" source="1Bs9g0EZFuZqRG2DbEx_-55" target="1Bs9g0EZFuZqRG2DbEx_-60">
          <mxGeometry width="50" height="50" relative="1" as="geometry">
            <mxPoint x="480" y="455" as="sourcePoint" />
            <mxPoint x="670" y="380" as="targetPoint" />
          </mxGeometry>
        </mxCell>
        <mxCell id="1Bs9g0EZFuZqRG2DbEx_-63" value="" style="endArrow=none;html=1;rounded=0;exitX=0.887;exitY=0.646;exitDx=0;exitDy=0;exitPerimeter=0;" edge="1" parent="1" source="1Bs9g0EZFuZqRG2DbEx_-55" target="1Bs9g0EZFuZqRG2DbEx_-61">
          <mxGeometry width="50" height="50" relative="1" as="geometry">
            <mxPoint x="480" y="500" as="sourcePoint" />
            <mxPoint x="670" y="380" as="targetPoint" />
          </mxGeometry>
        </mxCell>
      </root>
    </mxGraphModel>
  </diagram>
</mxfile>
